<?xml version="1.0" encoding="utf-8"?>
<svg version="1.0" xmlns="http://www.w3.org/2000/svg" width="1254px" height="1254px" viewBox="0 0 1254 1254" preserveAspectRatio="xMidYMid meet">
 <!-- White details of the logo (no background rectangle) -->
 <g fill="#fafaf9">
  <path d="M518 1063.5 c25.1 -4.1 49 -16.1 68 -34.1 21.4 -20.4 35 -50.9 35 -78.3 -0.1 -30 -12.2 -57.9 -34.2 -78.7 -16.4 -15.5 -23.1 -18.8 -76.3 -38.1 -15.9 -5.8 -39.6 -14.3 -52.5 -19 -34 -12.3 -53.7 -19.3 -54.5 -19.3 -1.1 0 -6.1 13.1 -29.5 78.5 -14.7 40.8 -29.6 82.1 -43.3 120 -19 52.4 -23.7 65.5 -23.7 66.5 0 0.5 1 1.6 2.2 2.4 2 1.4 13.2 1.6 100.8 1.6 83.9 0 99.9 -0.2 108 -1.5z"/>
  <path d="M626.3 876.6 c6 -11.4 18.1 -22.3 33.2 -29.9 10.3 -5.2 18.3 -7.8 30.8 -10.1 18.6 -3.5 36.9 -11.3 54.2 -22.9 11.3 -7.6 29.3 -25.6 36.4 -36.2 11.1 -16.6 10.3 -14.8 67.1 -168.5 9.4 -25.6 19.4 -52.5 22.1 -59.8 2.7 -7.3 4.9 -13.6 4.9 -14 0 -0.4 -3.8 -2.7 -8.5 -5.2 l-8.5 -4.4 -14.4 3.2 c-85.7 19.2 -159.6 57.8 -227.8 118.9 -11.2 10.1 -14.2 12.3 -16.7 12.3 -2.8 0 -3.1 -0.3 -3.1 -3.3 0 -2.5 1.5 -5.2 6.7 -11.7 43 -54.8 97.8 -95.4 168.3 -124.8 9.5 -3.9 39.1 -14 50.8 -17.3 4.3 -1.2 8 -2.3 8.4 -2.6 0.4 -0.2 -0.9 -2.6 -3 -5.4 -4.3 -5.8 -3 -5.8 -21.6 0.3 -29.7 9.7 -62.7 24.6 -89.1 40.1 -72.7 42.6 -129.9 104.7 -177.9 193 -3.5 6.3 -3.9 6.7 -7.1 6.7 -3.2 0 -3.5 -0.3 -3.5 -2.9 0 -5.2 15.8 -43.5 26.7 -64.9 38.4 -75.2 94.9 -132.5 172.8 -175.4 20.8 -11.5 52.6 -25.6 72 -31.8 3.9 -1.3 7.1 -2.4 7.3 -2.5 0.7 -0.6 -3.2 -11.5 -4 -11.5 -0.5 0 -6.4 2 -13.1 4.5 -45 16.2 -90.5 41.7 -126.9 70.7 -38 30.4 -74.4 70.3 -102.7 112.6 -8.4 12.6 -28.5 46 -32.4 53.8 -2.9 5.9 -3.4 6.4 -6.4 6.4 -3.1 0 -3.3 -0.2 -3.3 -3.7 0 -6 14.2 -41.7 25.7 -64.8 11.7 -23.4 26.1 -46.3 42.8 -68 12.3 -16 17 -21.3 34.3 -38.9 23.6 -23.9 42.2 -39.1 70.9 -58 30.8 -20.1 57.1 -33.4 91.3 -46 l16.5 -6.1 0.6 -10 c1.9 -33 15.8 -63.7 40.2 -89.2 5.3 -5.6 9.7 -10.8 9.7 -11.5 0 -6.8 -6.1 -17 -12.9 -21.6 -2.8 -1.9 -16.8 -7.3 -36.1 -14.1 -17.3 -6 -63 -22.1 -101.5 -35.6 -38.5 -13.6 -80.6 -28.4 -93.5 -32.8 l-23.5 -8.2 -10 0.1 c-8 0.1 -11.7 0.6 -18.2 2.8 -15 4.9 -30.1 17.3 -37.1 30.4 -1.7 3.1 -8 19.9 -14 37.2 -25.1 71.6 -45.6 130.1 -54.5 155.5 -5.3 14.9 -14.1 40 -19.7 55.8 -5.5 15.9 -15.3 43.1 -21.6 60.5 -19.6 53.6 -27.7 78.8 -31 95.8 -5.5 28.5 2.3 61.5 21.1 88.9 12 17.6 15.5 27.7 15.5 45.2 0 7 -0.6 12.8 -1.6 16.2 -0.8 2.9 -1.4 5.4 -1.2 5.5 1.1 0.9 24.8 9.2 37.3 13.1 57.3 17.8 109.4 36.3 125.5 44.5 5.6 2.9 13.7 7.9 17.9 11 8.7 6.5 23 21.1 28.1 28.7 1.9 2.9 3.7 5.3 4 5.3 0.3 0 1.8 -2.4 3.3 -5.4z"/>
  <path d="M947.4 519 c24.5 -3.1 45.6 -12.7 63.2 -28.7 20.2 -18.3 33.2 -45.6 34.8 -73.3 2 -34.9 -10 -66.7 -33.9 -89.5 -28.7 -27.5 -66.1 -37.1 -102.7 -26.4 -17.8 5.1 -29.2 11.3 -43.4 23.4 -26 22 -42.7 62.7 -38.7 94.3 3.3 26.2 15.6 50.9 34.6 69.4 24.5 23.7 55.1 34.7 86.1 30.8z"/>
  <path d="M381 1010.5 c0 -1.9 3.9 -14.1 8.6 -27.2 8.5 -23.6 11.4 -31.5 31.9 -88.3 5.9 -16.2 11.2 -30.7 11.7 -32.2 0.8 -2.2 1.6 -2.8 4.1 -2.8 5 0 86.1 29 96.9 34.7 13.3 7 23.7 19 28.5 33.2 1.9 5.4 2.3 8.8 2.3 19.1 0 14.7 -1.6 22.3 -6.7 33 -5.1 10.7 -15.8 21.2 -27.3 26.7 -15.1 7.3 -14.9 7.3 -86.4 7.3 l-63.6 0 0 -3.5z"/>
  <path d="M923.9 507 c-9.8 -1.7 -14 -5.6 -14.7 -13.4 -0.8 -10.2 4.3 -14.7 17.8 -15.4 9.5 -0.5 17.8 1.8 22 5.9 2.6 2.7 3 3.7 3 8.8 0 6.5 -2 10 -7 12.6 -3.5 1.8 -15 2.7 -21.1 1.5z"/>
  <path d="M985.7 489.3 c-1.4 -1.3 -0.7 -12.6 1 -16.1 2.8 -6 12.3 -14.8 17.4 -16.2 4.7 -1.3 10.2 -0.8 12.5 1.1 1.7 1.4 1.9 10.5 0.3 14.6 -1.6 4.3 -7.8 11.3 -12.8 14.4 -3.8 2.4 -5.5 2.9 -11.1 2.9 -3.7 0 -7 -0.3 -7.3 -0.7z"/>
  <path d="M863.5 475.2 c-4.6 -2.9 -10 -9.4 -12 -14.5 -1.3 -3.4 -1.6 -6.6 -1.3 -12.7 0.3 -7.7 0.5 -8.4 3.3 -10.7 2.7 -2.2 3.8 -2.4 10.6 -2.1 9.3 0.4 14.1 3.2 19.5 11.2 5.7 8.6 6.1 22.7 0.7 28 -2.3 2.3 -3.3 2.6 -10.2 2.6 -5.6 0 -8.4 -0.5 -10.6 -1.8z"/>
  <path d="M956 458.8 c-5 -3.3 -8 -9.8 -8 -17.3 0.1 -13.7 9 -22.5 22.7 -22.5 12.5 0.1 18.7 6.1 18.7 18.5 0.1 8.9 -3.1 15.6 -9.3 20 -3.8 2.6 -5.3 3 -12.4 3.3 -7.3 0.3 -8.6 0.1 -11.7 -2z"/>
  <path d="M1015.2 422.1 c-3.7 -3.8 -5.7 -10.8 -5.6 -19.6 0.3 -14.5 3.8 -20 12.8 -20 10.1 0 14.9 6.7 15 21 0.2 14.7 -4.3 21.5 -14 21.5 -4.5 0 -5.7 -0.4 -8.2 -2.9z"/>
  <path d="M902.4 420.2 c-6.9 -4.4 -10 -11.6 -9.1 -21.4 0.7 -7.7 3.3 -12.6 8.5 -16.3 4 -2.7 5.1 -3 12.5 -3 11.1 0 15.5 2.3 19.2 10 2.3 4.7 2.7 6.4 2.3 12.2 -0.5 8.2 -2.9 13.5 -7.6 17.1 -3.2 2.4 -4.5 2.7 -13.1 3 -8.1 0.2 -10.1 0 -12.7 -1.6z"/>
  <path d="M842 403 c-8.1 -8.6 -3.5 -34.4 7.3 -41 3.6 -2.2 12.5 -2.7 15.9 -0.9 7.5 4 7.5 25.6 0 36.4 -4.2 6.1 -8.5 8.5 -14.9 8.5 -4.8 0 -5.9 -0.4 -8.3 -3z"/>
  <path d="M977.7 373.7 c-5.3 -1.7 -10.6 -6.3 -12.8 -11.1 -2.3 -5.2 -2.6 -18.3 -0.4 -22.5 2 -3.9 7.1 -6.1 14.2 -6.1 8.8 0 13.2 1.6 18.4 6.9 5.5 5.4 7.4 10.9 6.6 19 -0.6 5.7 -2.5 9.1 -6.9 12.4 -3.2 2.4 -13.7 3.2 -19.1 1.4z"/>
  <path d="M900.5 343.6 c-5.2 -2.3 -6.9 -5.1 -7.3 -11.9 -0.5 -9.3 2.3 -14.2 10.6 -18.4 5.2 -2.7 7.5 -3.3 12.7 -3.3 7.1 0 13.9 2 17.2 5.2 2 1.8 2.3 3.2 2.3 9 0 10 -3 14.6 -12 18.7 -5.3 2.4 -18.7 2.8 -23.5 0.7z"/>
 </g>
 <!-- Green body of the logo -->
 <g fill="#0f5b39">
  <path d="M305.3 1065.4 c-1.9 -1.9 -2.4 -3.2 -2 -5.3 0.6 -2.7 4.6 -14.1 24.4 -68.6 13.1 -36.3 28 -77.3 43.3 -120 20.1 -55.9 22.6 -62.8 30.6 -82.7 7.5 -18.5 7.8 -19.7 8.2 -28.8 0.7 -15.6 -3.2 -26.8 -15.3 -44.5 -15.3 -22.3 -22.7 -45.7 -22.8 -72 -0.1 -24.7 4.6 -41.7 32.7 -118.7 6.3 -17.4 16.1 -44.6 21.6 -60.5 5.6 -15.8 14.4 -40.9 19.7 -55.8 8.9 -25.4 29.4 -83.9 54.5 -155.5 6 -17.3 12.3 -34.1 14 -37.2 7 -13.1 22.1 -25.5 37.1 -30.4 7.2 -2.4 9.9 -2.8 21.2 -2.8 l13 -0.1 23.5 8.2 c12.9 4.4 55 19.2 93.5 32.8 38.5 13.5 84.2 29.6 101.5 35.6 19.3 6.8 33.3 12.2 36.1 14.1 7.9 5.3 12.9 14.8 12.9 24.6 0 4.1 -0.5 4.8 -9.7 14.5 -24.4 25.5 -38.3 56.2 -40.2 89.2 l-0.6 10 -16.5 6.1 c-34.2 12.6 -60.5 25.9 -91.3 46 -28.7 18.9 -47.3 34.1 -70.9 58 -17.3 17.6 -22 22.9 -34.3 38.9 -21.5 28.1 -40.4 60.1 -53.3 90.5 -5.2 12.3 -15.2 38.4 -15.2 39.6 0 0.5 2.2 -3.1 4.8 -8.1 16.8 -31.5 41.6 -68.2 64.7 -96 55.1 -66.1 122.9 -113.6 201.3 -140.9 7.4 -2.5 13.5 -4.6 13.7 -4.6 0.2 0 1.6 3.7 3.1 8.3 1.5 4.5 2.9 8.7 3.1 9.3 0.3 0.7 -2.9 2.3 -7.9 3.9 -66.9 22 -135.5 65.6 -181.6 115.4 -37.1 40.1 -64.8 85.1 -84.2 136.6 -2.1 5.5 -4.6 11.8 -5.5 14 -2.8 6.7 0 2.6 6.6 -9.5 35.9 -66.1 83.3 -122.3 135.9 -161.2 41.3 -30.5 84.8 -52.3 136.3 -68.3 l13.7 -4.3 6.5 8.4 c4.1 5.3 6.1 8.6 5.3 8.9 -0.7 0.2 -6 1.8 -11.8 3.4 -64.3 18.4 -118.3 46.5 -165.5 86 -17.8 14.8 -44.9 43.6 -57.7 61.1 -2.5 3.4 0 1.5 10.7 -8 61 -54.6 124.8 -90.4 198.3 -111.5 15.3 -4.4 45.2 -11.5 48.6 -11.5 0.9 0 3.3 1.1 5.4 2.4 2 1.3 6.2 3.6 9.2 5.1 3 1.5 5.7 2.9 5.9 3.1 0.2 0.1 -2.4 7.6 -5.7 16.6 -3.3 9 -13.8 37.2 -23.2 62.8 -56.9 154.2 -56 151.9 -67.1 168.5 -7.1 10.6 -25.1 28.6 -36.4 36.2 -17.3 11.6 -35.6 19.4 -54.2 22.9 -12.5 2.3 -20.5 4.9 -30.8 10.1 -16.5 8.3 -27.3 18.6 -34.8 33 l-4.3 8.4 -5.4 -8.3 c-6.6 -10.2 -19.9 -24.2 -30.1 -31.8 -4.2 -3.1 -12.3 -8.1 -17.9 -11 -16.1 -8.2 -68.2 -26.7 -125.5 -44.5 -8.2 -2.6 -19.9 -6.5 -25.9 -8.8 -10.6 -3.9 -10.9 -4 -12.3 -2.1 -1.6 2.2 -2.8 6.3 -2 7 0.4 0.4 12.5 4.9 68.2 24.9 69.9 25.1 81.9 29.7 91.8 34.6 31 15.7 53.7 47.3 58.7 81.9 1.3 8.8 1.2 28.3 -0.1 35.6 -4.2 24.1 -16.6 47.3 -33.9 63.8 -14.1 13.4 -30 23 -48 29 -20 6.7 -18.3 6.6 -131.3 6.6 l-101.8 0 -2.6 -2.6z m207 -56 c24 -5.3 42.7 -23.3 48.1 -46.4 2.4 -9.9 2 -24.1 -0.7 -32.1 -3.2 -9.4 -8.3 -17.3 -15.5 -23.9 -10.3 -9.5 -14.6 -11.3 -81.3 -35 -13.9 -4.9 -25.4 -8.8 -25.6 -8.6 -0.6 0.5 -53.3 146.2 -53.3 147.1 0 0.3 27.2 0.5 60.6 0.5 51.5 0 61.6 -0.2 67.7 -1.6z"/>
 </g>
 <!-- Yellow pickleball -->
 <g fill="#f9b818">
  <path d="M920.2 520.9 c-35.6 -4.6 -68.3 -28.9 -85 -63.1 -18.5 -37.8 -15.4 -79.7 8.5 -115.7 29.3 -44 87.5 -61.4 137.4 -41.1 23.8 9.7 46.4 31.4 57.4 55.3 10.5 22.8 13.5 58 7.1 83.2 -14 54.3 -67.3 89 -125.4 81.4z m22 -18.5 c3.7 -1.9 6.8 -6.2 6.8 -9.5 0 -6.3 -11.9 -12.6 -22 -11.7 -15.6 1.5 -19.9 14.2 -7.1 20.8 5.7 2.9 16.8 3.1 22.3 0.4z m59 -18.3 c8.8 -5.6 15.9 -17.5 13.1 -21.9 -1.4 -2.3 -4.4 -3 -8.2 -2 -4.1 1.1 -13.9 10.7 -16.4 16 -1.7 3.6 -2.3 8.9 -1 10.1 1.6 1.7 8.2 0.5 12.5 -2.2z m-119.9 -12.7 c3.1 -3.1 4.3 -9.4 2.8 -15 -2.5 -9.1 -13.1 -18.4 -21 -18.4 -14.9 0 -12.5 24.4 3.4 34.2 4.6 2.8 11.6 2.4 14.8 -0.8z m95.9 -17 c8.3 -5.8 11.4 -17.5 6.7 -25 -2.4 -4 -8.6 -7.4 -13.4 -7.4 -10.4 0 -21 12.3 -19.1 22.2 2.4 12.6 15.2 17.7 25.8 10.2z m51 -34.4 c10.6 -8.3 6.2 -34.2 -5.8 -34.2 -10.2 0 -13.3 24.2 -4.2 33.3 3.4 3.4 6.5 3.7 10 0.9z m-103 -4.2 c4 -3 6.8 -8.2 7.5 -13.9 0.8 -5.6 -3.6 -14.3 -8.5 -16.8 -8.6 -4.3 -15.7 -3.4 -22.1 2.7 -8.8 8.5 -7.2 22.7 3.3 29.4 4.7 2.9 15.1 2.2 19.8 -1.4z m-69.6 -14.7 c9 -5.5 14.6 -21.2 10.9 -30.6 -1.9 -5 -4.7 -7.5 -8.5 -7.5 -12.7 0 -22.2 27.1 -13 37 3.3 3.5 6.2 3.8 10.6 1.1z m134.3 -30.1 c4.7 -1.3 8.9 -5.6 10.2 -10.2 1.5 -5.8 -0.4 -11.4 -6 -16.9 -6.6 -6.7 -14.7 -8.6 -21.7 -5.3 -4.4 2.1 -6.4 6 -6.4 12.1 0.1 9.2 6 17.3 14.7 20 4.9 1.5 5.2 1.5 9.2 0.3z m-68.9 -31.1 c8 -3.6 12 -8.8 12 -15.7 0 -4.6 -2.6 -7.4 -8.9 -9.7 -6.4 -2.2 -10.2 -1.9 -17.3 1.8 -5.1 2.6 -6.7 4.1 -8.6 7.7 -5.1 9.9 0.8 17.9 13.3 17.9 2.9 0 6.9 -0.8 9.5 -2z"/>
 </g>
</svg>
